<svg width="1731" height="117" viewBox="0 0 1731 117" fill="none" xmlns="http://www.w3.org/2000/svg">
<path d="M630.827 59.9531C630.827 77.7132 641.484 87.7733 657.841 87.7734C674.074 87.7734 684.855 77.589 684.855 59.9531V27.7861H688.077V86.9043C688.077 108.266 674.694 116.96 657.346 116.96C643.715 116.96 632.438 110.626 628.225 98.2061H631.57C635.536 108.639 645.202 113.979 657.346 113.979C672.835 113.978 684.855 106.279 684.855 86.9043V74.2363C680.023 85.2897 670.232 90.7539 657.717 90.7539C639.749 90.7538 627.605 80.197 627.605 59.9531V27.7861H630.827V59.9531ZM1243.76 59.9531C1243.76 77.7131 1254.42 87.7733 1270.77 87.7734C1287.01 87.7734 1297.79 77.589 1297.79 59.9531V27.7861H1301.01V86.9043C1301.01 108.266 1287.63 116.96 1270.28 116.96C1256.65 116.96 1245.37 110.626 1241.16 98.2061H1244.5C1248.47 108.639 1258.13 113.979 1270.28 113.979C1285.77 113.978 1297.79 106.279 1297.79 86.9043V74.2363C1292.96 85.2897 1283.17 90.7539 1270.65 90.7539C1252.68 90.7538 1240.54 80.197 1240.54 59.9531V27.7861H1243.76V59.9531ZM1072.88 83.5508C1074.86 83.5509 1076.47 85.1653 1076.47 87.1523C1076.47 87.7733 1076.35 88.6427 1076.1 89.2637L1071.39 103.298H1069.16L1072.51 90.7539C1070.65 90.5055 1069.29 89.0153 1069.29 87.1523C1069.29 85.1653 1070.9 83.5508 1072.88 83.5508ZM115.57 26.1719C134.901 26.1721 148.408 39.7092 148.408 58.7109V89.1396H145.311V71.752C140.23 83.9231 129.325 90.7538 115.446 90.7539C96.2391 90.7539 82.6074 77.0924 82.6074 58.4629C82.6075 39.8335 96.2392 26.1719 115.57 26.1719ZM191.082 26.1719C206.448 26.1719 218.22 34.7418 222.31 47.6582H218.964C214.999 36.4805 204.713 29.1523 191.082 29.1523C173.362 29.1524 161.466 41.6964 161.466 58.4629C161.466 75.2294 173.362 87.7734 191.082 87.7734C204.713 87.7734 214.998 80.4461 218.964 69.2686H222.31C218.22 82.1848 206.448 90.7539 191.082 90.7539C171.751 90.7539 158.12 77.0923 158.12 58.4629C158.12 39.8335 171.751 26.1719 191.082 26.1719ZM330.577 59.9531C330.577 77.7132 341.234 87.7734 357.591 87.7734C373.948 87.7734 384.604 77.7132 384.604 59.9531V27.7861H387.827V59.9531C387.827 80.1972 375.683 90.7539 357.591 90.7539C339.499 90.7539 327.354 80.1972 327.354 59.9531V27.7861H330.577V59.9531ZM430.446 26.1719C449.777 26.1719 463.285 39.8335 463.285 58.4629V58.7109H400.83C400.954 75.3531 412.726 87.7732 430.446 87.7734C442.962 87.7734 452.628 81.5633 457.213 71.876H460.683C455.974 83.3021 444.821 90.7539 430.446 90.7539C411.115 90.7537 397.484 77.0922 397.484 58.4629C397.484 39.8336 411.115 26.1721 430.446 26.1719ZM843.481 26.1719C862.813 26.1719 876.443 39.8335 876.443 58.4629C876.443 77.0924 862.813 90.7539 843.481 90.7539C824.15 90.7539 810.52 77.0923 810.52 58.4629C810.52 39.8335 824.15 26.1719 843.481 26.1719ZM916.573 26.1719C935.904 26.1719 949.535 39.8335 949.535 58.4629C949.535 77.0924 935.904 90.7539 916.573 90.7539C897.242 90.7538 883.611 77.0923 883.611 58.4629C883.611 39.8335 897.242 26.172 916.573 26.1719ZM1389.26 6.30078C1408.84 6.30078 1424.08 17.1054 1429.91 33.375H1426.19C1420.61 18.9684 1406.86 9.40527 1389.26 9.40527C1365.97 9.4055 1349.61 26.0479 1349.61 48.5273C1349.61 71.0067 1365.97 87.6492 1389.26 87.6494C1410.45 87.6494 1426.31 74.3601 1428.92 54.2402H1384.18V51.1357H1432.26V52.377C1430.53 74.7323 1413.18 90.7539 1389.26 90.7539C1363.98 90.7537 1346.14 72.8697 1346.14 48.5273C1346.14 24.185 1363.98 6.301 1389.26 6.30078ZM1530.72 26.1719C1550.05 26.1719 1563.55 39.8335 1563.55 58.4629V58.7109H1501.1C1501.22 75.3532 1513 87.7733 1530.72 87.7734C1543.23 87.7734 1552.9 81.5633 1557.48 71.876H1560.95C1556.24 83.3021 1545.09 90.7539 1530.72 90.7539C1511.38 90.7538 1497.75 77.0923 1497.75 58.4629C1497.75 39.8335 1511.38 26.172 1530.72 26.1719ZM1603.69 26.1719C1623.02 26.172 1636.53 39.8336 1636.53 58.4629V58.7109H1574.07C1574.2 75.3533 1585.97 87.7734 1603.69 87.7734C1616.2 87.7733 1625.87 81.5632 1630.45 71.876H1633.92C1629.21 83.302 1618.06 90.7538 1603.69 90.7539C1584.36 90.7539 1570.72 77.0924 1570.72 58.4629C1570.72 39.8335 1584.36 26.1719 1603.69 26.1719ZM1726.71 83.5508C1728.7 83.5508 1730.31 85.1653 1730.31 87.1523C1730.31 89.1395 1728.7 90.7539 1726.71 90.7539C1724.73 90.7539 1723.12 89.1395 1723.12 87.1523C1723.12 85.1653 1724.73 83.5508 1726.71 83.5508ZM3.77734 46.292H67.2236V7.91504H70.6934V89.1396H67.2236V49.3965H3.77734V89.1396H0.307617V7.91504H3.77734V46.292ZM237.685 42.5654C242.517 31.8847 252.06 26.1719 264.823 26.1719C282.791 26.172 294.935 36.7288 294.935 56.9727V89.1396H291.713V56.9727C291.713 39.2126 281.056 29.1525 264.699 29.1523C248.466 29.1523 237.685 39.3367 237.685 56.9727V89.1396H234.463V0.959961H237.685V42.5654ZM312.726 89.1396H309.503V27.7861H312.726V89.1396ZM588.846 6.30078C603.716 6.30078 615.116 15.9876 615.116 34.1201V89.1396H611.646V34.1201C611.646 18.099 601.857 9.40527 588.722 9.40527C575.463 9.4055 565.921 18.5959 565.921 34.1201V89.1396H562.451V34.1201C562.451 18.5958 552.909 9.40527 539.65 9.40527C526.515 9.40543 516.726 18.0991 516.726 34.1201V89.1396H513.256V34.1201C513.256 15.9878 524.657 6.30099 539.526 6.30078C551.794 6.30078 560.965 13.007 564.187 24.8057C567.408 13.0071 576.578 6.30092 588.846 6.30078ZM774.595 7.91504C792.563 7.91504 800.369 18.0991 800.369 31.7607C800.369 44.8014 793.182 54.8611 776.949 55.7305L803.344 89.1396H798.883L772.612 55.7305H740.766V89.1396H737.296V7.91504H774.595ZM1028.82 26.1719C1042.58 26.1719 1052.86 34.9902 1052.86 52.502V89.1396H1049.64V52.502C1049.64 37.1016 1040.84 29.1523 1028.7 29.1523C1016.68 29.1525 1007.63 37.4743 1007.63 52.502V89.1396H1004.41V52.502C1004.41 37.4742 995.366 29.1523 983.346 29.1523C971.202 29.1523 962.403 37.1016 962.403 52.502V89.1396H959.182V52.502C959.182 34.9903 969.467 26.1719 983.222 26.1719C994.126 26.1719 1002.92 31.8848 1006.02 43.3105C1009.12 31.8848 1017.92 26.1719 1028.82 26.1719ZM1201.78 6.30078C1216.65 6.30099 1228.05 15.9878 1228.05 34.1201V89.1396H1224.58V34.1201C1224.58 18.0991 1214.79 9.40545 1201.66 9.40527C1188.4 9.40527 1178.85 18.5958 1178.85 34.1201V89.1396H1175.38V34.1201C1175.38 18.5958 1165.84 9.40527 1152.58 9.40527C1139.45 9.40548 1129.66 18.0992 1129.66 34.1201V89.1396H1126.19V34.1201C1126.19 15.9876 1137.59 6.30078 1152.46 6.30078C1164.73 6.30091 1173.9 13.0071 1177.12 24.8057C1180.34 13.007 1189.51 6.30078 1201.78 6.30078ZM1466.69 26.1719C1481.44 26.1719 1491.47 34.4931 1491.47 51.3838V52.502H1488.38V51.3838C1488.38 36.356 1479.7 29.1523 1466.69 29.1523C1453.68 29.1524 1445 36.356 1445 51.3838V89.1396H1441.78V51.3838C1441.78 34.4931 1451.94 26.1719 1466.69 26.1719ZM1676.41 26.1719C1694.5 26.1719 1706.65 36.7286 1706.65 56.9727V89.1396H1703.42V56.9727C1703.42 39.2125 1692.77 29.1523 1676.41 29.1523C1660.05 29.1524 1649.4 39.2126 1649.4 56.9727V89.1396H1646.17V56.9727C1646.17 36.7287 1658.32 26.172 1676.41 26.1719ZM115.57 29.1523C97.8501 29.1523 85.9532 41.6964 85.9531 58.4629C85.9531 75.2294 97.8501 87.7734 115.57 87.7734C133.29 87.7732 145.187 75.2293 145.187 58.4629C145.186 41.6966 133.29 29.1526 115.57 29.1523ZM843.481 29.1523C825.761 29.1524 813.865 41.6964 813.865 58.4629C813.865 75.2294 825.761 87.7734 843.481 87.7734C861.202 87.7734 873.098 75.2294 873.098 58.4629C873.098 41.6964 861.202 29.1523 843.481 29.1523ZM916.573 29.1523C898.853 29.1525 886.957 41.6965 886.957 58.4629C886.957 75.2294 898.853 87.7733 916.573 87.7734C934.293 87.7734 946.189 75.2294 946.189 58.4629C946.189 41.6964 934.293 29.1523 916.573 29.1523ZM430.446 29.1523C413.718 29.1525 402.069 40.3303 400.83 55.7305H459.939C458.7 40.3302 447.175 29.1523 430.446 29.1523ZM1530.72 29.1523C1513.99 29.1525 1502.34 40.3303 1501.1 55.7305H1560.21C1558.97 40.3302 1547.44 29.1523 1530.72 29.1523ZM1603.69 29.1523C1586.96 29.1523 1575.31 40.3302 1574.07 55.7305H1633.18C1631.94 40.3303 1620.42 29.1525 1603.69 29.1523ZM740.766 52.626H774.595C790.828 52.626 796.899 43.5594 796.899 31.7607C796.899 19.9621 790.704 11.0195 774.595 11.0195H740.766V52.626ZM311.114 5.55566C313.097 5.55566 314.584 7.04606 314.584 9.0332C314.584 11.0202 313.097 12.5107 311.114 12.5107C309.132 12.5107 307.645 11.0201 307.645 9.0332C307.645 7.04607 309.131 5.55568 311.114 5.55566Z" fill="#1F1F1F"/>
</svg>
