<svg width="24" height="24" viewBox="0 0 24 24" fill="none" xmlns="http://www.w3.org/2000/svg">
<path d="M11.9997 1.25C13.7898 1.25 15.5073 1.96078 16.7731 3.22656C18.039 4.49243 18.7497 6.20979 18.7497 8C18.7497 9.87125 17.8454 11.7153 16.7868 13.25H18.9997C19.3668 13.2501 19.7253 13.3654 20.0231 13.5801C20.321 13.7949 20.5438 14.0988 20.6598 14.4473L22.6598 20.4473C22.7473 20.71 22.7709 20.9899 22.7292 21.2637C22.6874 21.5375 22.5814 21.7977 22.4196 22.0225C22.2577 22.2473 22.0441 22.4312 21.7975 22.5576C21.6128 22.6523 21.4128 22.7127 21.2077 22.7373L21.0007 22.75H2.99969C2.72267 22.7498 2.4494 22.6839 2.20282 22.5576C1.95614 22.4312 1.74274 22.2474 1.58075 22.0225C1.41873 21.7974 1.31184 21.5369 1.2702 21.2627C1.22859 20.9886 1.25265 20.7083 1.34052 20.4453L3.34442 14.4453H3.3454C3.46173 14.0974 3.68446 13.7945 3.98212 13.5801C4.27964 13.3659 4.63698 13.2502 5.0036 13.25H7.21258C6.15414 11.7154 5.24969 9.87106 5.24969 8C5.24969 6.20986 5.96048 4.49242 7.22626 3.22656C8.49206 1.96076 10.2096 1.25008 11.9997 1.25ZM5.00458 14.75C4.95223 14.75 4.90059 14.7663 4.85809 14.7969C4.81566 14.8275 4.78388 14.8713 4.76727 14.9209L2.76337 20.9209C2.7509 20.9583 2.74775 20.9981 2.7536 21.0371C2.75955 21.0763 2.77441 21.1143 2.79755 21.1465C2.82065 21.1785 2.85131 21.2046 2.88641 21.2227C2.92162 21.2407 2.96112 21.25 3.00067 21.25H20.9997C21.0392 21.2499 21.0788 21.2407 21.1139 21.2227C21.149 21.2046 21.1798 21.1785 21.2028 21.1465C21.2258 21.1145 21.2408 21.077 21.2468 21.0381C21.2527 20.999 21.2495 20.9584 21.237 20.9209L19.237 14.9209C19.2204 14.8712 19.1877 14.8276 19.1452 14.7969C19.1028 14.7665 19.0518 14.7501 18.9997 14.75H15.6364C14.6746 15.8933 13.7097 16.8134 13.1071 17.3535C13.0927 17.3664 13.0776 17.3789 13.0622 17.3906C12.7571 17.6236 12.3835 17.75 11.9997 17.75C11.6159 17.7499 11.2422 17.6236 10.9372 17.3906C10.9218 17.3789 10.9067 17.3664 10.8923 17.3535C10.29 16.8133 9.32426 15.8935 8.362 14.75H5.00458ZM11.9997 2.75C10.6074 2.75008 9.27228 3.30359 8.28778 4.28809C7.3033 5.27264 6.74969 6.60768 6.74969 8C6.74969 9.56187 7.599 11.2571 8.72918 12.7959C9.82614 14.2893 11.1093 15.5298 11.8581 16.2041C11.8998 16.2331 11.9487 16.2499 11.9997 16.25C12.0504 16.25 12.0987 16.2328 12.1403 16.2041C12.8893 15.5301 14.173 14.2898 15.2702 12.7959C16.4003 11.2571 17.2497 9.56202 17.2497 8C17.2497 6.60761 16.6962 5.27265 15.7116 4.28809C14.7271 3.30361 13.392 2.75 11.9997 2.75ZM11.9997 5.25C13.5185 5.25 14.7497 6.48122 14.7497 8C14.7497 9.51878 13.5185 10.75 11.9997 10.75C10.481 10.7498 9.24969 9.51869 9.24969 8C9.24969 6.48131 10.481 5.25016 11.9997 5.25ZM11.9997 6.75C11.3095 6.75016 10.7497 7.30974 10.7497 8C10.7497 8.69026 11.3095 9.24984 11.9997 9.25C12.69 9.25 13.2497 8.69036 13.2497 8C13.2497 7.30964 12.69 6.75 11.9997 6.75Z" fill="#FAFAFA"/>
</svg>
