<svg width="24" height="24" viewBox="0 0 24 24" fill="none" xmlns="http://www.w3.org/2000/svg">
<path d="M11 2.25C11.4142 2.25 11.75 2.58579 11.75 3C11.75 3.41421 11.4142 3.75 11 3.75H5C4.66848 3.75 4.35063 3.88179 4.11621 4.11621C3.88179 4.35063 3.75 4.66848 3.75 5V19C3.75 19.3315 3.88179 19.6494 4.11621 19.8838C4.35063 20.1182 4.66848 20.25 5 20.25H19C19.3315 20.25 19.6494 20.1182 19.8838 19.8838C20.1182 19.6494 20.25 19.3315 20.25 19V13C20.25 12.5858 20.5858 12.25 21 12.25C21.4142 12.25 21.75 12.5858 21.75 13V19C21.75 19.7293 21.4601 20.4286 20.9443 20.9443C20.4286 21.4601 19.7293 21.75 19 21.75H5C4.27065 21.75 3.57139 21.4601 3.05566 20.9443C2.53994 20.4286 2.25 19.7293 2.25 19V5C2.25 4.27065 2.53994 3.57139 3.05566 3.05566C3.57139 2.53994 4.27065 2.25 5 2.25H11ZM21 2.25C21.045 2.25 21.089 2.25413 21.1318 2.26172C21.1374 2.2627 21.1429 2.26354 21.1484 2.26465C21.1618 2.26733 21.1744 2.27298 21.1875 2.27637C21.2207 2.28495 21.2541 2.29344 21.2861 2.30664C21.3153 2.31868 21.342 2.33512 21.3691 2.35059C21.4263 2.3831 21.4816 2.421 21.5303 2.46973C21.5787 2.51812 21.616 2.5732 21.6484 2.62988C21.6638 2.65677 21.6804 2.68307 21.6924 2.71191C21.7133 2.76217 21.7278 2.8143 21.7373 2.86719C21.745 2.91035 21.75 2.95462 21.75 3V9C21.75 9.41421 21.4142 9.75 21 9.75C20.5858 9.75 20.25 9.41421 20.25 9V4.81055L12.5303 12.5303C12.2374 12.8232 11.7626 12.8232 11.4697 12.5303C11.1768 12.2374 11.1768 11.7626 11.4697 11.4697L19.1895 3.75H15C14.5858 3.75 14.25 3.41421 14.25 3C14.25 2.58579 14.5858 2.25 15 2.25H21Z" fill="#1F1F1F"/>
</svg>
