<svg width="24" height="24" viewBox="0 0 24 24" fill="none" xmlns="http://www.w3.org/2000/svg">
<path d="M7.03019 0.0839251C5.75337 0.144165 4.88144 0.347925 4.1192 0.647459C3.3303 0.954899 2.66165 1.36746 1.99637 2.03514C1.33107 2.70282 0.921394 3.37194 0.616114 4.16202C0.320673 4.92596 0.120513 5.7986 0.0641127 7.07612C0.00769932 8.35364 -0.00478059 8.76429 0.00145942 12.0231C0.00769943 15.2818 0.0220994 15.6903 0.0840328 16.9704C0.144993 18.247 0.348033 19.1187 0.647554 19.8811C0.955474 20.67 1.36755 21.3384 2.03549 22.0039C2.70341 22.6695 3.37206 23.0782 4.16408 23.3839C4.92728 23.679 5.80017 23.88 7.07747 23.9359C8.35477 23.9919 8.76589 24.0048 12.0236 23.9986C15.2815 23.9923 15.6916 23.9779 16.9716 23.9172C18.2515 23.8566 19.1187 23.652 19.8814 23.3539C20.6703 23.0454 21.3391 22.6339 22.0042 21.9658C22.6692 21.2976 23.0787 20.628 23.3838 19.8375C23.6794 19.0743 23.8803 18.2014 23.9358 16.9251C23.9916 15.6442 24.0048 15.2352 23.9986 11.9769C23.9924 8.71869 23.9778 8.31021 23.917 7.03052C23.8563 5.75084 23.653 4.8818 23.3538 4.11882C23.0454 3.32994 22.6338 2.66202 21.966 1.99602C21.2983 1.33002 20.6283 0.920819 19.8379 0.616499C19.0743 0.321045 18.2019 0.119685 16.9246 0.0644854C15.6472 0.00928534 15.2362 -0.00487488 11.9771 0.00136512C8.71813 0.00760513 8.31012 0.0215251 7.03019 0.0839251ZM7.17035 21.7771C6.00033 21.7263 5.36505 21.5319 4.94168 21.3691C4.38104 21.1531 3.98166 20.892 3.55974 20.4742C3.13782 20.0563 2.87862 19.6555 2.65973 19.0962C2.49533 18.6727 2.29733 18.0382 2.24261 16.8682C2.18309 15.6036 2.17061 15.2239 2.16365 12.0201C2.15669 8.81637 2.16893 8.43717 2.22437 7.17212C2.27429 6.00308 2.46989 5.36708 2.63237 4.94396C2.84838 4.3826 3.10854 3.98394 3.52734 3.56226C3.94615 3.14058 4.34576 2.8809 4.90568 2.66202C5.32856 2.4969 5.96313 2.30058 7.13267 2.2449C8.39821 2.1849 8.77741 2.1729 11.9807 2.16594C15.184 2.15898 15.5642 2.17098 16.8302 2.22666C17.9992 2.27754 18.6355 2.47122 19.0582 2.63466C19.6191 2.85066 20.0182 3.1101 20.4399 3.52962C20.8615 3.94914 21.1215 4.34732 21.3403 4.90844C21.5058 5.33012 21.702 5.96444 21.7572 7.13468C21.8175 8.40021 21.8311 8.77965 21.837 11.9827C21.8427 15.1858 21.8314 15.5662 21.7759 16.8307C21.7248 18.0007 21.531 18.6363 21.3679 19.0602C21.1519 19.6206 20.8915 20.0202 20.4724 20.4415C20.0535 20.863 19.6543 21.1227 19.0942 21.3415C18.6718 21.5064 18.0364 21.7032 16.8679 21.759C15.6024 21.8184 15.2231 21.831 12.0187 21.8379C8.81413 21.8448 8.43589 21.8319 7.17035 21.7771ZM16.9531 5.58644C16.9536 5.87126 17.0386 6.14954 17.1971 6.3861C17.3558 6.62265 17.5811 6.80685 17.8444 6.91538C18.1078 7.02392 18.3974 7.05193 18.6766 6.99586C18.9559 6.9398 19.2122 6.80217 19.4132 6.6004C19.6143 6.39862 19.751 6.14177 19.806 5.86232C19.861 5.58286 19.8319 5.29336 19.7224 5.03042C19.613 4.76748 19.4279 4.54293 19.1908 4.38514C18.9536 4.22737 18.6751 4.14346 18.3903 4.14402C18.0084 4.14479 17.6426 4.29717 17.373 4.56766C17.1035 4.83816 16.9524 5.20461 16.9531 5.58644ZM5.83857 12.012C5.84529 15.4152 8.60917 18.1678 12.0116 18.1612C15.4142 18.1548 18.1687 15.3912 18.1623 11.988C18.1558 8.58477 15.3912 5.83148 11.9882 5.8382C8.58517 5.84492 5.83209 8.60925 5.83857 12.012ZM8.00004 12.0076C7.99847 11.2165 8.23155 10.4427 8.66978 9.78401C9.10802 9.12532 9.73175 8.61139 10.462 8.30717C11.1924 8.00297 11.9966 7.92217 12.7728 8.07497C13.549 8.22779 14.2626 8.60735 14.8231 9.16565C15.3836 9.72401 15.766 10.436 15.9219 11.2116C16.0778 11.9872 16.0002 12.7916 15.6988 13.5232C15.3975 14.2547 14.886 14.8804 14.2291 15.3214C13.5722 15.7622 12.7992 15.9983 12.008 15.9999C11.4828 16.001 10.9624 15.8986 10.4767 15.6986C9.99082 15.4984 9.54935 15.2047 9.1771 14.834C8.80491 14.4632 8.50939 14.0228 8.30743 13.5379C8.10547 13.053 8.00102 12.5329 8.00004 12.0076Z" fill="#FAFAFA"/>
</svg>
