<svg width="24" height="24" viewBox="0 0 24 24" fill="none" xmlns="http://www.w3.org/2000/svg">
<path d="M16 1.25C16.4142 1.25 16.75 1.58579 16.75 2V3.25H19C20.5188 3.25 21.75 4.48122 21.75 6V20C21.75 21.5188 20.5188 22.75 19 22.75H5C3.48122 22.75 2.25 21.5188 2.25 20V6C2.25 4.48122 3.48122 3.25 5 3.25H7.25V2C7.25 1.58579 7.58579 1.25 8 1.25C8.41421 1.25 8.75 1.58579 8.75 2V3.25H15.25V2C15.25 1.58579 15.5858 1.25 16 1.25ZM3.75 20C3.75 20.6904 4.30964 21.25 5 21.25H19C19.6904 21.25 20.25 20.6904 20.25 20V10.75H3.75V20ZM13.4697 13.4697C13.7626 13.1768 14.2374 13.1768 14.5303 13.4697C14.8232 13.7626 14.8232 14.2374 14.5303 14.5303L13.0605 16L14.5303 17.4697C14.8232 17.7626 14.8232 18.2374 14.5303 18.5303C14.2374 18.8232 13.7626 18.8232 13.4697 18.5303L12 17.0605L10.5303 18.5303C10.2374 18.8232 9.76262 18.8232 9.46973 18.5303C9.17683 18.2374 9.17683 17.7626 9.46973 17.4697L10.9395 16L9.46973 14.5303C9.17683 14.2374 9.17683 13.7626 9.46973 13.4697C9.76262 13.1768 10.2374 13.1768 10.5303 13.4697L12 14.9395L13.4697 13.4697ZM5 4.75C4.30964 4.75 3.75 5.30964 3.75 6V9.25H20.25V6C20.25 5.30964 19.6904 4.75 19 4.75H16.75V6C16.75 6.41421 16.4142 6.75 16 6.75C15.5858 6.75 15.25 6.41421 15.25 6V4.75H8.75V6C8.75 6.41421 8.41421 6.75 8 6.75C7.58579 6.75 7.25 6.41421 7.25 6V4.75H5Z" fill="#FAFAFA"/>
</svg>
