<svg width="24" height="24" viewBox="0 0 24 24" fill="none" xmlns="http://www.w3.org/2000/svg">
<path d="M3.25405 2C3.43738 2.00108 3.61863 2.0452 3.7853 2.125L3.78627 2.12305L21.7863 10.623C21.9466 10.699 22.089 10.8084 22.2033 10.9424L22.3078 11.085L22.3917 11.2402C22.4639 11.4008 22.5021 11.5765 22.5021 11.7539C22.5021 11.7696 22.4988 11.7852 22.4982 11.8008C22.4974 11.8132 22.4966 11.8256 22.4953 11.8379C22.481 12.0447 22.4191 12.2459 22.3078 12.4219C22.2128 12.5718 22.0875 12.6999 21.9406 12.7969L21.7863 12.8838L3.78627 21.3838L3.7853 21.3818C3.56183 21.4885 3.31167 21.5281 3.06655 21.4922C2.81913 21.4558 2.58764 21.3449 2.40346 21.1758C2.21948 21.0065 2.09048 20.7854 2.03334 20.542C1.97685 20.3007 1.99463 20.0481 2.08217 19.8164H2.08119L4.92299 12.1895C5.01453 11.9435 5.02578 11.6752 4.95717 11.4238L4.92299 11.3174L2.08022 3.69043L2.08119 3.68945C1.99375 3.45799 1.97607 3.20592 2.03237 2.96484L2.08803 2.78613C2.15716 2.61302 2.26499 2.45722 2.40346 2.33008C2.58818 2.1605 2.81938 2.04976 3.06752 2.01367L3.25405 2ZM6.39565 12.5029C6.37568 12.5733 6.35397 12.6438 6.32826 12.7129L3.70033 19.7646L19.0783 12.5029H6.39565ZM6.32826 10.7939C6.35389 10.8628 6.37573 10.9327 6.39565 11.0029H19.0783L3.69936 3.74023L6.32826 10.7939Z" fill="#FAFAFA"/>
</svg>
