<svg width="222" height="90" viewBox="0 0 222 90" fill="none" xmlns="http://www.w3.org/2000/svg">
<g clip-path="url(#clip0_3008_544)">
<path d="M20.954 22.4328C27.6742 12.9691 33.7374 6.16818 36.8036 6.16818C38.7978 6.16818 40.2848 7.4131 40.2848 9.48796C40.2848 10.7329 39.5355 11.3092 36.55 13.2227C34.9708 14.8019 30.3254 20.2772 24.7579 28.1617C28.4926 28.0003 32.3888 27.9081 36.4578 27.9081C41.0225 21.4299 46.3364 15.044 51.0625 9.73003C56.5609 3.67835 60.457 0.10498 62.5319 0.10498C64.1111 0.10498 65.771 0.266359 65.771 1.60349C65.771 2.76772 61.2063 6.50247 55.973 12.8884C46.59 24.1734 34.0602 41.0258 34.0602 48.0804C34.0602 49.9016 34.6365 50.4088 35.7201 50.4088C42.936 50.4088 54.1518 37.1297 55.3045 37.1297C56.1344 37.1297 56.803 39.0432 56.803 40.2881C56.803 43.4465 42.7746 58.4662 33.5645 58.4662C29.3341 58.4662 26.2564 55.3078 26.2564 51.331C26.2564 46.432 28.7462 40.2881 32.5617 33.9828C28.9076 34.0635 24.5965 34.3171 20.2739 34.6514C12.8851 46.4435 9.5653 52.7488 7.74403 56.3107C6.99478 59.1348 6.24552 59.884 5.2542 59.884C3.59431 59.884 0.435914 56.9792 0.435914 54.743C0.435914 53.0024 6.08415 44.0344 11.8938 35.4814C9.89958 35.6427 8.07832 35.8963 6.57981 36.1499C4.50495 36.4842 3.42141 36.8185 2.17649 36.8185C0.931575 36.8185 0.355225 35.9885 0.355225 34.7436C0.355225 33.0837 3.42141 31.0089 6.32621 30.4325C9.5653 29.764 12.9658 29.2683 16.4469 28.8533L20.9309 22.4674L20.954 22.4328Z" fill="#1F1F1F"/>
<path d="M54.5668 56.9564C52.4113 56.9564 49.5065 53.383 49.5065 48.9106C49.5065 38.617 65.1947 26.7441 69.3444 26.7441C70.67 26.7441 72.4106 27.9891 72.7449 29.3147C74.2434 27.5741 75.1541 26.9862 76.1454 26.9862C77.8053 26.9862 78.7966 28.3118 78.7966 29.3954C78.7966 30.2253 78.2202 31.0552 76.0532 33.96C72.7334 38.3634 68.503 43.6658 68.503 46.4899C68.503 47.3198 68.8373 48.7261 70.1629 48.7261C74.9811 48.7261 85.2632 37.1069 86.1854 37.1069C87.0153 37.1069 87.6839 39.0204 87.6839 40.2653C87.6839 42.9165 74.9811 56.2879 68.0073 56.2879C65.2639 56.2879 63.4426 53.4637 63.4426 48.5648C60.0422 54.0401 56.4688 56.9449 54.5668 56.9449V56.9564ZM67.1774 33.7987C64.7682 33.7987 56.3881 44.2537 56.3881 47.4121C56.3881 47.9884 56.7224 48.242 57.1373 48.242C59.3736 48.242 65.3561 39.5276 67.016 37.1184C67.5116 36.3692 67.9266 35.7121 68.4223 35.1243C68.1687 34.2136 67.5923 33.7987 67.1774 33.7987Z" fill="#1F1F1F"/>
<path d="M88.7558 45.6712C88.7558 48.6567 90.5771 50.0745 93.0669 50.0745C102.116 50.0745 111.994 37.1297 113.401 37.1297C114.15 37.1297 114.899 38.7896 114.899 40.2881C114.899 43.6886 100.951 56.3107 91.9949 56.3107C85.3554 56.3107 81.782 51.331 81.782 46.432C81.782 36.7263 94.4847 25.5105 101.539 25.5105C103.199 25.5105 105.113 26.8361 105.355 27.7467C106.761 28.4153 106.853 29.4873 106.853 29.8216C106.853 30.9858 106.023 32.0578 103.038 35.2969C101.954 36.5418 101.297 37.5332 100.052 37.5332C98.9688 37.5332 97.3089 36.9568 97.3089 35.2969C97.3089 34.882 97.4702 34.052 97.8045 33.1414C90.4157 38.536 88.7558 42.8471 88.7558 45.6712Z" fill="#1F1F1F"/>
<path d="M110.749 54.2243C109.343 55.8035 108.674 56.2992 107.845 56.2992C106.023 56.2992 104.525 54.5586 104.525 52.9794C104.525 51.5731 105.85 48.6683 108.836 43.7693C113.816 35.4699 121.366 22.1908 127.348 13.0614C132.489 5.17691 134.564 2.94067 136.812 2.94067C139.382 2.94067 139.97 5.43051 139.97 6.59473C139.97 9.24595 128.432 22.2023 116.559 42.6166C126.68 31.4124 132.167 26.2598 134.403 26.2598C136.224 26.2598 138.057 27.7583 138.057 28.7496C138.057 31.4008 129.838 40.0346 129.838 44.7722C129.838 46.0171 130.092 47.3427 131.337 47.3427C136.063 47.3427 144.696 37.1298 145.699 37.1298C146.448 37.1298 147.198 38.951 147.198 40.2882C147.198 42.9394 135.406 56.3107 127.44 56.3107C125.031 56.3107 122.622 54.5701 122.622 50.0054C122.622 46.4321 124.858 40.6225 128.178 37.0606C121.458 42.3746 115.648 48.5185 110.749 54.2474V54.2243Z" fill="#1F1F1F"/>
<path d="M144.524 56.2992C141.204 56.2992 138.46 53.3944 138.46 49.0833C138.46 44.1843 144.766 32.6457 149.826 27.5854C151.647 25.7641 152.65 25.4298 153.722 25.4298C155.301 25.4298 156.708 27.5047 156.708 28.496C156.708 29.1646 155.797 30.2366 154.298 32.2308C151.232 36.2191 146.495 42.4437 146.495 45.6828C146.495 46.9277 147.163 47.4234 148.235 47.4234C153.964 47.4234 162.01 37.1297 163.174 37.1297C164.004 37.1297 164.673 38.951 164.673 40.2881C164.673 42.6166 152.639 56.3107 144.5 56.3107L144.524 56.2992ZM156.65 17.5338C156.65 15.7126 158.978 11.0557 162.713 11.0557C164.119 11.0557 165.779 12.3813 165.779 14.3754C165.779 16.946 162.713 21.0957 159.97 21.0957C158.229 21.0957 156.65 19.5972 156.65 17.5223V17.5338Z" fill="#1F1F1F"/>
<path d="M161.457 56.7142C158.806 56.7142 156.316 52.7259 156.316 50.236C156.316 43.1815 167.266 29.0724 169.675 29.0724C171.001 29.0724 172.327 29.9831 172.327 31.3087C172.327 32.4729 170.747 34.1328 169.007 36.6226C166.356 40.5188 163.197 45.4984 163.197 47.4926C163.197 48.0689 163.359 48.4032 163.947 48.4032C165.687 48.4032 171.001 41.4294 173.906 37.199C179.381 29.1531 179.796 28.9802 181.629 28.9802C182.955 28.9802 184.28 30.3058 184.28 31.3087C184.28 31.7237 183.865 32.3 181.79 35.0434C178.632 39.1125 175.404 44.2535 175.404 46.9969C175.404 47.9076 176.073 48.7375 177.145 48.7375C182.205 48.7375 192.245 37.1183 193.168 37.1183C193.997 37.1183 194.666 39.0318 194.666 40.2767C194.666 42.8472 182.136 56.2992 175.082 56.2992C172.338 56.2992 170.102 53.3944 170.102 48.749C166.367 53.9823 163.209 56.7142 161.468 56.7142H161.457Z" fill="#1F1F1F"/>
<path d="M199.219 49.9939C208.763 49.9939 218.642 37.1297 219.968 37.1297C220.636 37.1297 221.466 38.6282 221.466 40.2881C221.466 43.5272 207.934 56.3107 198.055 56.3107C191.162 56.3107 187.519 51.5846 187.519 46.7663C187.519 37.0606 200.13 25.1877 207.196 25.1877C209.017 25.1877 211.68 26.8476 211.68 30.0867C211.68 35.6427 202.804 46.1093 197.156 46.1093C195.911 46.1093 194.92 45.9479 193.675 45.2793C193.675 48.3455 196.003 50.0054 199.231 50.0054L199.219 49.9939ZM196.314 42.1901C198.228 42.1901 200.383 39.7002 202.378 37.3718C204.199 35.2162 205.444 33.0607 205.444 32.2307C205.444 31.2394 204.948 30.9858 204.36 30.9858C202.862 30.9858 196.81 36.2998 194.482 41.6944C194.977 42.0287 195.646 42.1901 196.303 42.1901H196.314Z" fill="#1F1F1F"/>
</g>
<g clip-path="url(#clip1_3008_544)">
<path d="M34.4983 85.6356H32.239V74.0164H35.7663L37.8757 83.1457L39.9736 74.0164H43.4663V85.6356H41.207V77.7742C41.207 77.5436 41.207 77.2324 41.207 76.8289C41.207 76.4255 41.207 76.1027 41.207 75.8837L39.0054 85.6356H36.6539L34.4868 75.8837C34.4868 76.1027 34.4868 76.414 34.4868 76.8289C34.4868 77.2439 34.4868 77.5551 34.4868 77.7742V85.6356H34.4983Z" fill="#1F1F1F"/>
<path d="M49.0338 83.376L50.809 77.0361H53.1951L50.2442 85.4854C49.6794 87.1107 49.2298 88.1251 48.8955 88.517C48.5612 88.9089 47.9042 89.1049 46.9129 89.1049C46.7169 89.1049 46.5555 89.1049 46.4287 89.1049C46.3019 89.1049 46.129 89.0934 45.887 89.0819V87.2836H46.1751C46.3942 87.3067 46.6016 87.3067 46.8091 87.2836C47.0166 87.2606 47.178 87.1914 47.3163 87.0992C47.4431 87.007 47.5699 86.8226 47.6852 86.5344C47.8005 86.2462 47.8466 86.0733 47.8235 86.0157L44.6766 77.0477H47.178L49.0569 83.3875L49.0338 83.376Z" fill="#1F1F1F"/>
<path d="M64.1113 81.0709H61.6099V85.6241H59.2354V74.0164H64.9297C65.7481 74.0279 66.3706 74.1316 66.8086 74.3161C67.2466 74.5005 67.6155 74.7656 67.9267 75.1229C68.1803 75.4227 68.3763 75.7454 68.5261 76.1027C68.676 76.4601 68.7451 76.8635 68.7451 77.3246C68.7451 77.8779 68.6068 78.4197 68.3302 78.9499C68.0535 79.4802 67.5924 79.8605 66.9469 80.0796C67.4772 80.2986 67.8576 80.5983 68.0881 81.0017C68.3186 81.4052 68.4224 82.0046 68.4224 82.823V83.6068C68.4224 84.1371 68.4454 84.4944 68.48 84.6904C68.5376 84.9901 68.6875 85.2091 68.918 85.3474V85.6356H66.2438C66.1746 85.382 66.117 85.1745 66.0824 85.0131C66.0248 84.6904 65.9902 84.3561 65.9786 84.0103V82.9267C65.9556 82.189 65.8173 81.6933 65.5521 81.4397C65.287 81.1862 64.8029 81.0709 64.0882 81.0709H64.1113ZM65.5867 78.9614C66.0709 78.7424 66.3129 78.3044 66.3129 77.6589C66.3129 76.9557 66.0824 76.4831 65.6098 76.2411C65.3447 76.1027 64.9527 76.0336 64.4225 76.0336H61.5984V79.1574H64.3533C64.8951 79.1574 65.3101 79.0998 65.5867 78.973V78.9614Z" fill="#1F1F1F"/>
<path d="M77.8168 78.1312C78.543 79.0418 78.9003 80.1138 78.9003 81.3587C78.9003 82.6037 78.543 83.6987 77.8168 84.5978C77.0906 85.4969 75.9955 85.9465 74.52 85.9465C73.0446 85.9465 71.938 85.4969 71.2233 84.5978C70.5086 83.6987 70.1398 82.6267 70.1398 81.3587C70.1398 80.0908 70.4971 79.0418 71.2233 78.1312C71.9495 77.2205 73.0446 76.771 74.52 76.771C75.9955 76.771 77.1021 77.2205 77.8168 78.1312ZM74.5085 78.6614C73.8515 78.6614 73.3443 78.892 72.9869 79.353C72.6296 79.8141 72.4567 80.4827 72.4567 81.3472C72.4567 82.2117 72.6296 82.8688 72.9869 83.3414C73.3443 83.814 73.8515 84.0445 74.5085 84.0445C75.1655 84.0445 75.6727 83.814 76.0185 83.3414C76.3644 82.8688 76.5488 82.2117 76.5488 81.3472C76.5488 80.4827 76.3759 79.8257 76.0185 79.353C75.6612 78.8804 75.1655 78.6614 74.5085 78.6614Z" fill="#1F1F1F"/>
<path d="M87.6725 78.1312C88.3987 79.0418 88.756 80.1138 88.756 81.3587C88.756 82.6037 88.3987 83.6987 87.6725 84.5978C86.9463 85.4969 85.8512 85.9465 84.3757 85.9465C82.9003 85.9465 81.7937 85.4969 81.079 84.5978C80.3643 83.6987 79.9955 82.6267 79.9955 81.3587C79.9955 80.0908 80.3528 79.0418 81.079 78.1312C81.8052 77.2205 82.9003 76.771 84.3757 76.771C85.8512 76.771 86.9578 77.2205 87.6725 78.1312ZM84.3642 78.6614C83.7072 78.6614 83.2 78.892 82.8427 79.353C82.4853 79.8141 82.3124 80.4827 82.3124 81.3472C82.3124 82.2117 82.4853 82.8688 82.8427 83.3414C83.2 83.814 83.7072 84.0445 84.3642 84.0445C85.0213 84.0445 85.5284 83.814 85.8743 83.3414C86.2201 82.8688 86.4045 82.2117 86.4045 81.3472C86.4045 80.4827 86.2316 79.8257 85.8743 79.353C85.5169 78.8804 85.0213 78.6614 84.3642 78.6614Z" fill="#1F1F1F"/>
<path d="M95.188 79.4108C95.0036 78.9958 94.6232 78.7883 94.0814 78.7883C93.4359 78.7883 93.0094 78.9958 92.7904 79.4108C92.6751 79.6529 92.606 79.9987 92.606 80.4713V85.6354H90.3236V77.0593H92.5022V78.3157C92.7789 77.8662 93.044 77.555 93.286 77.359C93.7241 77.0247 94.2889 76.8518 94.9805 76.8518C95.6376 76.8518 96.1678 77.0017 96.5712 77.2898C96.894 77.555 97.1476 77.9008 97.309 78.3273C97.6087 77.8201 97.966 77.4512 98.404 77.2207C98.8651 76.9786 99.3838 76.8633 99.9487 76.8633C100.329 76.8633 100.698 76.9325 101.067 77.0823C101.436 77.2322 101.77 77.4858 102.07 77.8547C102.312 78.1544 102.473 78.5232 102.554 78.9612C102.611 79.2494 102.634 79.6759 102.634 80.2292V85.6469H100.318V80.1831C100.318 79.8604 100.26 79.5837 100.156 79.3762C99.9602 78.9728 99.5913 78.7768 99.0496 78.7768C98.4271 78.7768 98.0006 79.0304 97.7701 79.5491C97.6548 79.8258 97.5856 80.1485 97.5856 80.5289V85.6469H95.3263V80.5289C95.3263 80.0217 95.2687 79.6529 95.165 79.4223L95.188 79.4108Z" fill="#1F1F1F"/>
<path d="M106.888 86.4308C106.796 86.8227 106.623 87.157 106.358 87.4452C106.081 87.7449 105.747 87.9754 105.378 88.1368C105.009 88.2982 104.744 88.3673 104.606 88.3673V87.5028C105.055 87.376 105.389 87.1685 105.597 86.8688C105.804 86.5691 105.931 86.1657 105.966 85.6354H104.606V83.2839H107.038V85.3127C107.038 85.67 106.992 86.0389 106.899 86.4308H106.888Z" fill="#1F1F1F"/>
<path d="M116.086 85.6356H113.827V74.0164H117.354L119.464 83.1457L121.562 74.0164H125.054V85.6356H122.795V77.7742C122.795 77.5436 122.795 77.2324 122.795 76.8289C122.795 76.4255 122.795 76.1027 122.795 75.8837L120.594 85.6356H118.242L116.063 75.8837C116.063 76.1027 116.063 76.414 116.063 76.8289C116.063 77.2439 116.063 77.5551 116.063 77.7742V85.6356H116.086Z" fill="#1F1F1F"/>
<path d="M130.622 83.376L132.397 77.0361H134.783L131.832 85.4854C131.267 87.1107 130.818 88.1251 130.484 88.517C130.149 88.9089 129.492 89.1049 128.501 89.1049C128.305 89.1049 128.144 89.1049 128.017 89.1049C127.89 89.1049 127.717 89.0934 127.475 89.0819V87.2836H127.763C127.982 87.3067 128.19 87.3067 128.397 87.2836C128.605 87.2606 128.766 87.1914 128.904 87.0992C129.031 87.007 129.158 86.8226 129.273 86.5344C129.388 86.2462 129.435 86.0733 129.412 86.0157L126.265 77.0477H128.766L130.645 83.3875L130.622 83.376Z" fill="#1F1F1F"/>
<path d="M147.89 85.3473C147.244 85.7392 146.46 85.9352 145.526 85.9352C143.982 85.9352 142.725 85.4049 141.746 84.3329C140.72 83.2609 140.213 81.797 140.213 79.9411C140.213 78.0853 140.731 76.5522 141.769 75.4225C142.806 74.2929 144.166 73.7166 145.872 73.7166C147.348 73.7166 148.535 74.0854 149.434 74.8347C150.333 75.5839 150.84 76.5176 150.979 77.6357H148.593C148.408 76.8404 147.959 76.2871 147.244 75.9758C146.841 75.8029 146.403 75.7107 145.907 75.7107C144.973 75.7107 144.201 76.0681 143.601 76.7712C143.002 77.4744 142.702 78.5348 142.702 79.9642C142.702 81.3935 143.025 82.4079 143.682 82.9958C144.339 83.5837 145.077 83.8834 145.907 83.8834C146.737 83.8834 147.394 83.6528 147.913 83.1802C148.431 82.7076 148.754 82.0967 148.869 81.3359H146.184V79.3994H151.025V85.6355H149.423L149.181 84.1831C148.708 84.7364 148.293 85.1283 147.924 85.3473H147.89Z" fill="#1F1F1F"/>
<path d="M157.457 79.1112C156.558 79.1112 155.947 79.4109 155.636 79.9988C155.463 80.3331 155.37 80.8403 155.37 81.5319V85.6355H153.111V77.0363H155.255V78.5349C155.601 77.9585 155.901 77.5666 156.166 77.3591C156.581 77.0018 157.134 76.8289 157.803 76.8289C157.849 76.8289 157.883 76.8289 157.906 76.8289C157.929 76.8289 157.999 76.8289 158.102 76.8404V79.1458C157.964 79.1343 157.837 79.1227 157.722 79.1112C157.607 79.0997 157.526 79.1112 157.457 79.1112Z" fill="#1F1F1F"/>
<path d="M166.771 83.1111C166.713 83.6183 166.448 84.137 165.975 84.6673C165.238 85.4972 164.212 85.9237 162.886 85.9237C161.791 85.9237 160.834 85.5664 159.993 84.8632C159.151 84.1601 158.736 83.0189 158.736 81.4282C158.736 79.9412 159.117 78.8 159.866 78.0047C160.615 77.2093 161.595 76.8174 162.805 76.8174C163.52 76.8174 164.166 76.9557 164.73 77.2208C165.295 77.4859 165.779 77.9124 166.148 78.4888C166.482 78.996 166.701 79.5839 166.805 80.264C166.863 80.6559 166.886 81.2207 166.874 81.97H160.996C161.03 82.8345 161.295 83.4339 161.803 83.7797C162.114 83.9987 162.483 84.1024 162.921 84.1024C163.382 84.1024 163.762 83.9757 164.05 83.7105C164.212 83.5722 164.35 83.3762 164.465 83.1227H166.759L166.771 83.1111ZM164.546 80.483C164.511 79.8836 164.327 79.434 164.004 79.1343C163.681 78.8346 163.278 78.6732 162.805 78.6732C162.287 78.6732 161.883 78.8346 161.595 79.1574C161.307 79.4801 161.134 79.9297 161.053 80.483H164.546Z" fill="#1F1F1F"/>
<path d="M175.75 83.1111C175.693 83.6183 175.428 84.137 174.955 84.6673C174.217 85.4972 173.191 85.9237 171.866 85.9237C170.771 85.9237 169.814 85.5664 168.972 84.8632C168.131 84.1601 167.716 83.0189 167.716 81.4282C167.716 79.9412 168.096 78.8 168.846 78.0047C169.595 77.2093 170.575 76.8174 171.785 76.8174C172.5 76.8174 173.145 76.9557 173.71 77.2208C174.275 77.4859 174.759 77.9124 175.128 78.4888C175.462 78.996 175.681 79.5839 175.785 80.264C175.842 80.6559 175.866 81.2207 175.854 81.97H169.975C170.01 82.8345 170.275 83.4339 170.782 83.7797C171.093 83.9987 171.462 84.1024 171.9 84.1024C172.361 84.1024 172.742 83.9757 173.03 83.7105C173.191 83.5722 173.33 83.3762 173.445 83.1227H175.739L175.75 83.1111ZM173.526 80.483C173.491 79.8836 173.307 79.434 172.984 79.1343C172.661 78.8346 172.258 78.6732 171.785 78.6732C171.266 78.6732 170.863 78.8346 170.575 79.1574C170.286 79.4801 170.114 79.9297 170.033 80.483H173.526Z" fill="#1F1F1F"/>
<path d="M181.41 78.7077C180.649 78.7077 180.131 79.0305 179.842 79.676C179.692 80.0218 179.623 80.4483 179.623 80.9785V85.6239H177.387V77.0593H179.554V78.3158C179.842 77.8778 180.119 77.555 180.373 77.359C180.834 77.0132 181.422 76.8403 182.125 76.8403C183.012 76.8403 183.738 77.0709 184.303 77.532C184.868 77.993 185.145 78.7653 185.145 79.8489V85.6354H182.839V80.4137C182.839 79.9642 182.782 79.6183 182.655 79.3763C182.436 78.9382 182.009 78.7192 181.398 78.7192L181.41 78.7077Z" fill="#1F1F1F"/>
<path d="M187.185 83.2839H189.571V85.6354H187.185V83.2839Z" fill="#1F1F1F"/>
</g>
<defs>
<clipPath id="clip0_3008_544">
<rect width="221.099" height="59.779" fill="white" transform="translate(0.355225 0.10498)"/>
</clipPath>
<clipPath id="clip1_3008_544">
<rect width="157.332" height="15.3886" fill="white" transform="translate(32.239 73.7166)"/>
</clipPath>
</defs>
</svg>
