<?xml version="1.0" encoding="UTF-8"?><svg id="b" xmlns="http://www.w3.org/2000/svg" xmlns:xlink="http://www.w3.org/1999/xlink" viewBox="0 0 235 90"><defs><linearGradient id="d" x1="117.5" y1="57.46" x2="117.5" y2="10.97" gradientUnits="userSpaceOnUse"><stop offset=".21" stop-color="#01655e"/><stop offset=".29" stop-color="#06776f"/><stop offset=".31" stop-color="#087d75"/></linearGradient></defs><g id="c"><path d="M3.61,49.98c-.43,3.15.94,5.85,3.67,5.85,4.46,0,6.98-5.12,8.92-11.55.43-1.39.5-2.85.94-4.39.86-3,4.68-1.83,3.96.8-.5,1.68-1.08,3-1.51,4.53-2.59,8.85-5.97,14.11-12.66,14.11C1.74,59.34-.49,54.44.09,49.76c1.3-10.09,11.44-16.16,25.25-18.43,2.81-.44,6.04-.88,8.99-1.1,3.31-.22,2.95,3.66.5,3.8-3.45.22-5.9,0-8.92.59-10.79,1.97-21.01,6.43-22.3,15.36ZM14.91,17.58c1.65-3.07,3.53-7.53,7.48-7.53,1.15,0,2.01.88,2.01,2.19,0,2.49-.94,5.56-1.87,8.92l-.65,2.12c-.43,1.54-1.01,2.85-1.51,4.53-.72,2.63,3.17,3.8,4.03.88.43-1.61.58-3,.94-4.46l.58-2.12c.79-3.07,2.3-6.29,2.3-9.65,0-3.73-2.45-5.85-5.83-5.85-5.04,0-8.71,5.49-10.65,9.29-1.29,2.41,1.65,4.46,3.17,1.68ZM48.29,49.32c-3.96,4.97-7.27,7.24-9.93,7.24-1.22,0-2.01-.88-2.01-2.56,0-2.49.94-5.19,1.87-8.56l7.63-28.01c.43-1.54,1.08-2.85,1.51-4.53.72-2.56-3.09-3.8-3.96-.8-.43,1.54-.58,3-.94,4.39l-7.63,28.01c-.86,3.14-2.37,6.36-2.37,9.65,0,3.73,2.45,5.85,5.9,5.85,3.81,0,8.27-2.85,12.73-8.92,1.44-1.9-.79-4.31-2.81-1.76ZM64.48,55.03c-.58.22-1.08.44-2.52.44-3.38-.07-5.83-3.07-5.83-7.97,0-8.56,6.48-18.43,14.75-18.43.58,0,1.58.29,2.16.95,1.58,1.61,4.46-1.75,1.37-3.58-1.15-.73-2.45-.95-3.53-.95-10.79,0-18.27,11.77-18.27,22.01,0,7.02,3.96,11.48,9.35,11.55,1.94,0,2.73-.15,3.53-.44,2.66-1.02,1.65-4.68-1.01-3.58ZM84.41,49.32c-3.96,5.05-7.27,7.24-10,7.24-1.15,0-1.94-.8-1.94-2.12,0-2.49,1.01-5.63,1.94-9l2.01-7.02c.43-1.54,1.08-2.85,1.51-4.53.72-2.56-3.31-3.66-4.1-.66-.43,1.54-.5,2.92-.94,4.39l-2.01,7.02c-.86,3.07-2.3,6.29-2.3,9.65,0,3.73,2.45,5.7,5.83,5.7,3.88,0,8.35-2.85,12.81-8.92,1.37-1.9-.79-4.31-2.81-1.76ZM113.25,49.32c-3.96,4.97-9.28,6.87-12.81,6.87-2.59,0-8.2-.95-8.2-8.7,0-8.56,6.48-18.43,14.17-18.43,1.8,0,2.23,1.61,1.65,3.29-.79,2.41,3.02,3.73,3.74.15.29-1.46.14-7.02-5.4-7.02-10.14,0-17.7,11.77-17.7,22.01,0,9.21,6.26,12.14,11.87,12.14,4.53,0,10.94-2.49,15.47-8.56,1.44-1.9-.79-4.31-2.81-1.76ZM135.34,2.59c.72-2.63-3.31-3.8-4.17-.88-.43,1.54-.5,3-.94,4.46l-12.66,44.54c-.43,1.54-1.01,2.85-1.51,4.53-.72,2.63,3.31,3.8,4.1.88.5-1.61.5-3,.94-4.46l12.66-44.54c.5-1.61,1.15-2.85,1.58-4.53ZM147.42,49.32c-3.96,4.97-7.34,7.24-10,7.24-1.15,0-2.01-.8-2.01-2.12,0-5.85,5.32-13.97,5.32-21.87,0-3.44-1.65-6.14-6.4-6.14-1.15,0-2.88.29-4.1.88-1.94.95-1.22,3.8.86,3.36,1.08-.22,1.58-.8,2.66-.8,2.52,0,3.31,1.17,3.31,3.36,0,8.34-5.25,13.82-5.25,21.06,0,3.73,2.23,5.7,5.61,5.7,3.88,0,8.35-2.85,12.81-8.92,1.37-1.9-.79-4.31-2.81-1.76ZM164.69,18.17c.22-1.61.5-2.63,1.08-4.24.94-2.56-3.53-3.73-3.74-.73-.14,1.32-.79,3-1.15,4.31-.65,2.71,3.31,3.66,3.81.66ZM166.99,49.32c-3.96,4.97-7.27,7.24-9.93,7.24-1.22,0-2.01-.8-2.01-2.12,0-2.49.94-5.63,1.87-9l4.32-15.21c.43-1.54,1.15-2.85,1.58-4.53.72-2.63-3.17-3.8-4.03-.88-.43,1.61-.5,3-.94,4.46l-4.32,15.21c-.86,3.14-2.37,6.36-2.37,9.65,0,3.73,2.45,5.85,5.9,5.85,3.81,0,8.27-2.85,12.73-8.92,1.44-1.9-.79-4.31-2.81-1.76ZM202.89,49.32c-3.96,4.97-7.27,7.24-9.93,7.24-1.22,0-2.01-.8-2.01-2.12,0-2.49.94-5.63,1.87-9l3.74-13.31c.43-1.54,1.08-2.85,1.51-4.53.72-2.63-3.09-3.8-3.96-.8-.43,1.54-.5,2.93-.94,4.39l-3.74,13.31c-.86,3.14-2.37,6.36-2.37,9.65,0,3.73,2.45,5.85,5.9,5.85,3.81,0,8.27-2.85,12.73-8.92,1.44-1.9-.79-4.31-2.81-1.76ZM183.68,52.54c-2.81,2.27-4.6,2.49-6.69,2.49-1.15,0-2.01-.88-2.01-2.12,0-2.56.94-5.63,1.87-8.99l3.88-13.68c.43-1.54,1.08-2.85,1.51-4.53.72-2.63-3.17-3.8-3.96-.88-.5,1.61-.5,3-.94,4.46l-3.88,13.68c-.86,3.15-2.37,6.36-2.37,9.65,0,3.73,2.52,5.85,5.9,5.85,2.66,0,5.54-.8,8.56-3.22,1.65-1.32.14-4.39-1.87-2.71ZM231.74,49.32c-3.96,4.97-9.28,6.87-12.81,6.87-2.59,0-8.2-.95-8.2-8.7,0-8.56,6.26-18.43,13.96-18.43,1.51,0,2.23,1.39,2.23,2.78,0,5.34-5.61,8.04-10.43,8.04-.58,0-1.08-.22-1.73-.22-2.37,0-3.02,3.29-.65,3.73,1.22.22,1.73-.07,2.23-.07,6.4,0,14.17-4.39,14.17-11.34,0-2.05-.94-6.51-5.68-6.51-10.22,0-17.63,11.77-17.63,22.01,0,9.21,6.26,12.14,11.87,12.14,4.53,0,10.94-2.49,15.47-8.56,1.44-1.9-.79-4.31-2.81-1.76Z" style="fill:url(#d);"/><path d="M28.5,78.18c0-2.78,1.71-4.18,3.95-4.18,1.62,0,2.88.77,3.48,2.19.6-1.42,1.86-2.19,3.48-2.19,2.24,0,3.95,1.4,3.95,4.18v7.79h-1.3v-7.79c0-1.99-1.17-3-2.74-3s-2.74,1.06-2.74,3v7.79h-1.3v-7.79c0-1.94-1.15-3-2.74-3s-2.74,1.01-2.74,3v7.79h-1.3v-7.79Z" style="fill:#01655e;"/><path d="M45.26,87.14h1.21c.47,1.2,1.57,1.8,3.05,1.8,1.91,0,3.25-.93,3.25-3.25v-1.49c-.63,1.27-1.82,1.96-3.37,1.96-2.38,0-4.22-1.44-4.22-4.47v-4.58h1.21v4.58c0,2.19,1.26,3.36,3.19,3.36s3.19-1.19,3.19-3.36v-4.58h1.21v8.55c0,3.09-1.97,4.35-4.45,4.35-2.02,0-3.7-.93-4.26-2.86Z" style="fill:#01655e;"/><path d="M61.14,74.23h5.21c2.78,0,4,1.54,4,3.63,0,1.94-1.05,3.23-2.98,3.59l3.41,4.52h-1.57l-3.19-4.45h-3.59v4.45h-1.3v-11.74ZM66.37,80.34c1.97,0,2.67-1.08,2.67-2.48s-.7-2.44-2.67-2.44h-3.93v4.92h3.93Z" style="fill:#01655e;"/><path d="M71.74,81.54c0-2.69,1.98-4.67,4.8-4.67s4.8,1.98,4.8,4.67-1.98,4.67-4.8,4.67-4.8-1.98-4.8-4.67ZM80.11,81.54c0-2.05-1.44-3.56-3.57-3.56s-3.57,1.51-3.57,3.56,1.44,3.56,3.57,3.56,3.57-1.51,3.57-3.56Z" style="fill:#01655e;"/><path d="M82.38,81.54c0-2.69,1.98-4.67,4.8-4.67s4.8,1.98,4.8,4.67-1.98,4.67-4.8,4.67-4.8-1.98-4.8-4.67ZM90.74,81.54c0-2.05-1.44-3.56-3.57-3.56s-3.57,1.51-3.57,3.56,1.44,3.56,3.57,3.56,3.57-1.51,3.57-3.56Z" style="fill:#01655e;"/><path d="M93.37,80.79c0-2.64,1.55-3.92,3.61-3.92,1.44,0,2.63.68,3.21,1.99.56-1.31,1.75-1.99,3.21-1.99,2.06,0,3.61,1.27,3.61,3.92v5.19h-1.21v-5.19c0-1.89-1.05-2.8-2.49-2.8s-2.51.95-2.51,2.8v5.19h-1.21v-5.19c0-1.85-1.08-2.8-2.52-2.8s-2.49.92-2.49,2.8v5.19h-1.21v-5.19Z" style="fill:#01655e;"/><path d="M109.76,86.16c-.38-.09-.63-.45-.63-.86,0-.52.4-.92.92-.92s.9.4.9.92c0,.14-.05.36-.11.5l-.96,2.41h-.72l.6-2.05Z" style="fill:#01655e;"/><path d="M117.92,78.18c0-2.78,1.71-4.18,3.95-4.18,1.62,0,2.88.77,3.48,2.19.6-1.42,1.86-2.19,3.48-2.19,2.24,0,3.95,1.4,3.95,4.18v7.79h-1.3v-7.79c0-1.99-1.17-3-2.74-3s-2.74,1.06-2.74,3v7.79h-1.3v-7.79c0-1.94-1.15-3-2.74-3s-2.74,1.01-2.74,3v7.79h-1.3v-7.79Z" style="fill:#01655e;"/><path d="M134.69,87.14h1.21c.47,1.2,1.57,1.8,3.05,1.8,1.91,0,3.25-.93,3.25-3.25v-1.49c-.63,1.27-1.82,1.96-3.37,1.96-2.38,0-4.22-1.44-4.22-4.47v-4.58h1.21v4.58c0,2.19,1.26,3.36,3.19,3.36s3.19-1.19,3.19-3.36v-4.58h1.21v8.55c0,3.09-1.97,4.35-4.45,4.35-2.02,0-3.7-.93-4.26-2.86Z" style="fill:#01655e;"/><path d="M149.97,80.11c0-3.52,2.6-6.11,6.27-6.11,2.85,0,5.08,1.56,5.91,3.92h-1.42c-.76-1.65-2.4-2.73-4.49-2.73-2.94,0-4.98,2.08-4.98,4.92s2.04,4.92,4.98,4.92c2.56,0,4.42-1.44,4.89-3.77h-5.63v-1.19h7v.61c-.27,3.21-2.78,5.53-6.26,5.53-3.68,0-6.27-2.59-6.27-6.11Z" style="fill:#01655e;"/><path d="M163.89,80.66c0-2.55,1.53-3.79,3.75-3.79s3.73,1.24,3.73,3.81v.11h-1.19v-.13c0-1.85-1.03-2.68-2.54-2.68s-2.54.83-2.54,2.68v5.31h-1.21v-5.31Z" style="fill:#01655e;"/><path d="M172.2,81.54c0-2.69,1.98-4.67,4.8-4.67s4.76,1.98,4.76,4.67v.4h-8.31c.16,1.85,1.55,3.16,3.55,3.16,1.41,0,2.49-.57,3.07-1.6h1.32c-.69,1.63-2.31,2.71-4.38,2.71-2.81,0-4.8-1.98-4.8-4.67ZM180.49,80.86c-.29-1.79-1.69-2.87-3.5-2.87s-3.25,1.13-3.52,2.87h7.01Z" style="fill:#01655e;"/><path d="M182.8,81.54c0-2.69,1.98-4.67,4.8-4.67s4.76,1.98,4.76,4.67v.4h-8.31c.16,1.85,1.55,3.16,3.55,3.16,1.41,0,2.49-.57,3.07-1.6h1.32c-.69,1.63-2.31,2.71-4.38,2.71-2.81,0-4.8-1.98-4.8-4.67ZM191.09,80.86c-.29-1.79-1.69-2.87-3.5-2.87s-3.25,1.13-3.52,2.87h7.01Z" style="fill:#01655e;"/><path d="M193.76,81.34c0-2.95,1.77-4.47,4.4-4.47s4.4,1.53,4.4,4.47v4.63h-1.21v-4.63c0-2.19-1.26-3.36-3.19-3.36s-3.19,1.17-3.19,3.36v4.63h-1.21v-4.63Z" style="fill:#01655e;"/><path d="M204.68,85.29c0-.52.4-.92.92-.92s.9.4.9.92-.4.92-.9.92-.92-.4-.92-.92Z" style="fill:#01655e;"/></g></svg>